<svg width="118" height="118" viewBox="0 0 118 118" fill="none" xmlns="http://www.w3.org/2000/svg">
<rect width="118" height="118" fill="#FB2E13"/>
<path fill-rule="evenodd" clip-rule="evenodd" d="M44.9058 66.8174H73.0943V57.9542H44.9058V66.8174ZM40.0853 83.3125H77.9138V74.4493H40.0853V83.3125Z" fill="white"/>
<path d="M76.9246 44.659C64.57 36.8442 59.0077 28 59.0077 28H58.9915C58.9915 28 53.43 36.8442 41.0754 44.659C35.2615 48.336 27.9869 51.5111 19 53.9325L27.7062 61.975C27.7062 61.975 35.7931 58.2031 46.1023 49.5826C55.3631 41.8388 58.4646 35.0973 59 33.8062C59.5346 35.0973 62.6362 41.8388 71.8977 49.5826C82.2069 58.2031 90.2938 61.975 90.2938 61.975L99 53.9325C90.0123 51.5111 82.7385 48.336 76.9246 44.659Z" fill="white"/>
</svg>
