<svg width="260" height="170" viewBox="0 0 260 170" fill="none" xmlns="http://www.w3.org/2000/svg">
<rect width="260" height="170" fill="white"/>
<path d="M79.725 45.7105H94.8976V40.3867H79.725V45.7105Z" fill="#C7C7C7"/>
<path d="M154.913 64.0396L150.183 65.8486L152.141 70.9076L149.414 76.4763L152.118 83.3262L156.827 81.4608L154.939 76.7122L157.653 71.1709L154.913 64.0396Z" fill="#C7C7C7"/>
<path d="M169.309 64.0396L164.577 65.8486L166.538 70.9092L163.812 76.4779L166.514 83.3246L171.223 81.4608L169.334 76.7122L172.048 71.1709L169.309 64.0396Z" fill="#C7C7C7"/>
<path d="M186.445 71.1709L183.704 64.0396L178.976 65.8502L180.935 70.9092L178.206 76.4779L180.911 83.3246L185.618 81.4608L183.73 76.7122L186.445 71.1709Z" fill="#C7C7C7"/>
<path d="M78.5489 109.925V81.8899C78.5489 79.2805 79.4042 78.4847 80.8214 77.1671C82.3919 75.7035 84.5095 73.7302 84.7685 69.3633H94.8991L94.8984 56.3657H89.8279V64.0396H84.7971V56.3575H94.8991V51.0353H79.7265L79.728 68.4595C79.728 71.0704 78.8711 71.8677 77.4555 73.1838C75.7779 74.7448 73.4783 76.8847 73.4783 81.8899V115.249H101.149L101.148 81.8966C101.148 76.8908 98.8501 74.7516 97.1709 73.189L97.0918 73.1167C95.8975 72.005 95.0798 71.2437 94.8999 69.37H89.855C90.1108 73.733 92.2292 75.7052 93.8011 77.1685L93.8051 77.1723C95.2237 78.4915 96.0776 79.2872 96.0776 81.8966V109.925H78.5489Z" fill="#C7C7C7"/>
<path fill-rule="evenodd" clip-rule="evenodd" d="M187.242 93.7177L187.24 93.7224V93.7347H187.236L180.158 115.239H156.178L149.143 93.7347H149.135V88.6194H187.24L187.242 93.7177ZM176.189 110.124L181.726 93.7347H154.655L160.143 110.124H176.189Z" fill="#C7C7C7"/>
<path d="M138.621 77.3485C138.621 69.9236 132.724 63.8863 125.475 63.8863V69.0016C129.933 69.0016 133.558 72.7445 133.558 77.3485V77.6315C133.558 85.3273 128.31 92.6716 125.472 96.0813C125.472 96.0813 122.944 98.9645 122.944 100.921V109.297L118.938 112.421L122.031 116.469L125.475 113.781L128.919 116.469L132.013 112.419L128.007 109.296V102.803C128.007 101.505 128.579 100.416 129.064 99.7253C129.275 99.4742 129.501 99.2049 129.737 98.9158C133.089 94.7987 138.622 86.6464 138.622 77.63L138.621 77.3485Z" fill="#C7C7C7"/>
<path d="M112.328 77.347C112.328 69.9251 118.227 63.8863 125.475 63.8863V69.0016C121.018 69.0016 117.391 72.746 117.391 77.347V77.63C117.391 85.3532 122.632 92.6792 125.472 96.0813C125.472 96.0813 122.944 98.9645 122.944 100.921C120.381 98.1338 112.328 88.5088 112.328 77.63V77.347Z" fill="#C7C7C7"/>
</svg>
