<svg width="118" height="118" viewBox="0 0 118 118" fill="none" xmlns="http://www.w3.org/2000/svg">
<rect width="118" height="118" fill="#A1D9F7"/>
<path d="M28.2753 37.4287H37.6112V34H28.2753V37.4287Z" fill="white"/>
<path d="M74.5396 49.2333L71.629 50.3984L72.8337 53.6566L71.1555 57.243L72.8198 61.6545L75.7174 60.4532L74.5554 57.3949L76.2252 53.8261L74.5396 49.2333Z" fill="white"/>
<path d="M83.3973 49.2333L80.4858 50.3984L81.6923 53.6575L80.0151 57.244L81.6775 61.6536L84.5751 60.4532L83.4131 57.3949L85.0829 53.8261L83.3973 49.2333Z" fill="white"/>
<path d="M93.9416 53.8261L92.2551 49.2333L89.3454 50.3994L90.551 53.6575L88.8719 57.244L90.5362 61.6536L93.4328 60.4532L92.2708 57.3949L93.9416 53.8261Z" fill="white"/>
<path d="M27.5516 78.7852V60.7295C27.5516 59.049 28.078 58.5365 28.9499 57.6879C29.9163 56.7453 31.2193 55.4744 31.3786 52.662H37.6121L37.6117 44.2911H34.4917V49.2333H31.3963V44.2857H37.6121V40.858H28.2763L28.2772 52.0799C28.2772 53.7614 27.7499 54.2749 26.8789 55.1225C25.8466 56.1279 24.4316 57.506 24.4316 60.7295V82.2139H41.4577L41.4573 60.7338C41.4573 57.51 40.0432 56.1322 39.01 55.1259L38.9613 55.0793C38.2265 54.3633 37.7233 53.873 37.6127 52.6663H34.5084C34.6658 55.4762 35.9693 56.7464 36.9365 57.6888L36.939 57.6912C37.8119 58.5408 38.3373 59.0533 38.3373 60.7338V78.7852H27.5516Z" fill="white"/>
<path fill-rule="evenodd" clip-rule="evenodd" d="M94.4316 68.3471L94.4307 68.3501V68.358H94.4282L90.0727 82.2078H75.3179L70.9893 68.358H70.984V65.0636H94.4307L94.4316 68.3471ZM87.6311 78.9134L91.0375 68.358H74.3809L77.7577 78.9134H87.6311Z" fill="white"/>
<path d="M64.5147 57.8047C64.5147 53.0228 60.886 49.1346 56.4261 49.1346V52.429C59.1689 52.429 61.3993 54.8396 61.3993 57.8047V57.987C61.3993 62.9433 58.17 67.6733 56.4242 69.8693C56.4242 69.8693 54.8684 71.7262 54.8684 72.9864V78.3807L52.4035 80.3925L54.3068 83L56.4261 81.2685L58.5453 83L60.4486 80.3915L57.9837 78.3798V74.1985C57.9837 73.3627 58.3359 72.661 58.6342 72.2162C58.764 72.0545 58.903 71.881 59.0484 71.6949C61.1111 69.0432 64.5156 63.7929 64.5156 57.986L64.5147 57.8047Z" fill="white"/>
<path d="M48.3363 57.8038C48.3363 53.0238 51.9662 49.1346 56.4261 49.1346V52.429C53.6832 52.429 51.4517 54.8405 51.4517 57.8038V57.986C51.4517 62.96 54.6766 67.6782 56.4242 69.8693C56.4242 69.8693 54.8684 71.7262 54.8684 72.9864C53.2912 71.1912 48.3363 64.9923 48.3363 57.986V57.8038Z" fill="white"/>
</svg>
