<svg width="118" height="118" viewBox="0 0 118 118" fill="none" xmlns="http://www.w3.org/2000/svg">
<rect width="118" height="118" fill="#D6E149"/>
<path d="M63.4413 51.0434L57.6092 51.0609C53.9467 51.0678 53.9467 52.4396 53.9467 53.6491V53.6525L53.9467 53.6588C53.9536 55.1798 53.9584 56.2303 57.4627 56.2198L63.4553 56.2059L63.4413 51.0434Z" fill="white"/>
<path fill-rule="evenodd" clip-rule="evenodd" d="M92.2158 59.5C92.2158 78.0016 77.2174 93 58.7158 93C40.2143 93 25.2158 78.0016 25.2158 59.5C25.2158 40.9985 40.2143 26 58.7158 26C77.2174 26 92.2158 40.9985 92.2158 59.5ZM44.145 53.9211C44.0892 47.6495 49.3667 43.3905 57.2883 43.3207L72.6012 43.1917L72.6221 49.1424L72.8488 74.522L63.396 74.6057L63.2983 63.803L58.2266 63.8483L51.5957 74.7104L40.465 74.8116L48.7703 62.0066C45.8751 60.0881 44.1764 57.1616 44.145 53.9211Z" fill="white"/>
</svg>
