<svg width="260" height="170" viewBox="0 0 260 170" fill="none" xmlns="http://www.w3.org/2000/svg">
<rect width="260" height="170" fill="white"/>
<path d="M79.7249 45.7105H94.8975V40.3867H79.7249V45.7105Z" fill="black"/>
<path d="M154.913 64.0396L150.183 65.8486L152.141 70.9076L149.413 76.4763L152.118 83.3261L156.827 81.4608L154.939 76.7122L157.652 71.1708L154.913 64.0396Z" fill="black"/>
<path d="M169.309 64.0396L164.577 65.8486L166.538 70.9091L163.812 76.4779L166.514 83.3246L171.223 81.4608L169.334 76.7122L172.048 71.1708L169.309 64.0396Z" fill="black"/>
<path d="M186.445 71.1708L183.704 64.0396L178.975 65.8502L180.935 70.9091L178.206 76.4779L180.911 83.3246L185.618 81.4608L183.73 76.7122L186.445 71.1708Z" fill="black"/>
<path d="M78.5487 109.925V81.8899C78.5487 79.2805 79.4041 78.4847 80.8212 77.1671C82.3918 75.7035 84.5094 73.7302 84.7684 69.3633H94.899L94.8983 56.3657H89.8277V64.0396H84.797V56.3575H94.899V51.0353H79.7264L79.7279 68.4595C79.7279 71.0704 78.871 71.8677 77.4554 73.1838C75.7778 74.7448 73.4781 76.8847 73.4781 81.8899V115.249H101.149L101.148 81.8966C101.148 76.8908 98.8499 74.7516 97.1708 73.189L97.0916 73.1167C95.8974 72.005 95.0797 71.2437 94.8998 69.37H89.8548C90.1106 73.733 92.2291 75.7052 93.8009 77.1685L93.805 77.1723C95.2236 78.4914 96.0775 79.2872 96.0775 81.8966V109.925H78.5487Z" fill="#A1D9F7"/>
<path fill-rule="evenodd" clip-rule="evenodd" d="M187.241 93.7177L187.24 93.7224V93.7347H187.236L180.157 115.239H156.178L149.143 93.7347H149.135V88.6194H187.24L187.241 93.7177ZM176.189 110.124L181.725 93.7347H154.655L160.143 110.124H176.189Z" fill="#A1D9F7"/>
<path d="M138.621 77.3485C138.621 69.9236 132.723 63.8863 125.475 63.8863V69.0016C129.933 69.0016 133.558 72.7445 133.558 77.3485V77.6315C133.558 85.3273 128.309 92.6716 125.472 96.0813C125.472 96.0813 122.944 98.9645 122.944 100.921V109.297L118.938 112.421L122.031 116.469L125.475 113.781L128.919 116.469L132.013 112.419L128.007 109.296V102.803C128.007 101.505 128.579 100.416 129.064 99.7253C129.275 99.4743 129.501 99.205 129.737 98.9159C133.089 94.7987 138.622 86.6464 138.622 77.63L138.621 77.3485Z" fill="black"/>
<path d="M112.328 77.347C112.328 69.9251 118.227 63.8863 125.475 63.8863V69.0016C121.018 69.0016 117.391 72.746 117.391 77.347V77.63C117.391 85.3532 122.632 92.6792 125.472 96.0813C125.472 96.0813 122.944 98.9645 122.944 100.921C120.381 98.1338 112.328 88.5088 112.328 77.63V77.347Z" fill="#A1D9F7"/>
<path d="M78.5489 110.078V82.0426C78.5489 79.4332 79.4042 78.6374 80.8214 77.3198C82.3919 75.8563 84.5095 73.883 84.7685 69.516L94.8999 69.5228L94.8988 64.1923H84.7971V56.5102H94.8991V51.188H79.7265L79.728 68.6123C79.728 71.2232 78.8711 72.0204 77.4555 73.3365C75.7779 74.8975 73.4783 77.0374 73.4783 82.0426V115.402H101.149V110.078H78.5489Z" fill="black"/>
</svg>
