<svg width="260" height="170" viewBox="0 0 260 170" fill="none" xmlns="http://www.w3.org/2000/svg">
<rect width="260" height="170" fill="white"/>
<path fill-rule="evenodd" clip-rule="evenodd" d="M201.037 116.464C221.115 116.464 237.391 100.695 237.391 81.243C237.391 61.791 221.115 46.022 201.037 46.022C180.958 46.022 164.682 61.791 164.682 81.243C164.682 100.695 180.958 116.464 201.037 116.464ZM199.488 64.2339C190.891 64.3073 185.164 68.7851 185.224 75.3789C185.258 78.7859 187.102 81.8628 190.244 83.8798L181.231 97.3426L193.31 97.2362L200.506 85.8161L206.01 85.7685L206.116 97.1262L216.374 97.0382L216.128 70.3547L216.105 64.0982L199.488 64.2339ZM199.836 72.3717L206.165 72.3534L206.18 77.781L199.677 77.7957C195.874 77.8067 195.869 76.7022 195.861 75.1032L195.861 75.0965V75.0929C195.861 73.8212 195.861 72.3791 199.836 72.3717ZM167.373 60.8016C163.531 66.7243 161.309 73.7325 161.309 81.2432C161.309 88.7356 163.52 95.7255 167.347 101.637C163.001 104.743 157.633 106.577 151.823 106.577C137.363 106.577 125.639 95.2194 125.639 81.2102C125.639 67.201 137.363 55.8433 151.823 55.8433C157.645 55.8433 163.024 57.6843 167.373 60.8016ZM59.3908 81.0927V93.1032C59.3908 96.3525 58.0243 99.301 55.8212 101.435L55.8098 101.424C53.5954 103.566 50.5557 104.894 47.2208 104.894C43.8897 104.894 40.8462 103.566 38.6318 101.424L38.6204 101.435C36.4173 99.301 35.0508 96.3525 35.0508 93.1032V81.0927C31.9657 80.9277 29.1759 79.6441 27.1204 77.6528C24.9173 75.5184 23.5508 72.5698 23.5508 69.3206C23.5508 66.0713 24.9173 63.1228 27.1204 60.9884L27.1318 60.9994C29.3462 58.8577 32.3859 57.5301 35.7208 57.5301H58.7208C62.0519 57.5301 65.0954 58.8577 67.3098 60.9994L67.3212 60.9884C69.5243 63.1228 70.8908 66.0713 70.8908 69.3206C70.8908 72.5698 69.5243 75.5184 67.3212 77.6528C65.2657 79.6404 62.4797 80.9277 59.3908 81.0927ZM102.954 63.4822L99.3348 69.5516L95.7046 63.4822C94.0315 60.673 91.3287 58.7844 88.3231 58.0032C85.8739 57.3688 83.2166 57.4715 80.7372 58.4176H80.4684L79.0981 59.1841C76.1985 60.8051 74.249 63.4235 73.4427 66.3354C72.9923 67.971 72.9014 69.702 73.208 71.4073C73.5848 73.4979 74.0971 74.342 74.9843 75.8036C75.1133 76.0163 75.2503 76.242 75.396 76.4865L87.5849 96.9392C87.7391 97.198 87.89 97.4585 88.0409 97.719L88.0414 97.7198L88.0418 97.7205C88.669 98.8032 89.2952 99.8839 90.1401 100.827C91.0486 101.842 92.1388 102.708 93.3539 103.368C95.1216 104.358 97.1128 104.861 99.1114 104.89C101.095 104.919 103.086 104.479 104.884 103.588C108.072 102.004 109.182 100.13 110.771 97.4494L111.066 96.9539L123.997 75.2763C125.677 72.4562 126.018 69.2399 125.215 66.3354C124.413 63.4272 122.46 60.8087 119.56 59.1841L118.19 58.4176H117.921C115.445 57.4715 112.784 57.3688 110.335 58.0032C107.333 58.7807 104.631 60.673 102.954 63.4822Z" fill="#C7C7C7"/>
</svg>
