<svg width="260" height="170" viewBox="0 0 260 170" fill="none" xmlns="http://www.w3.org/2000/svg">
<rect width="260" height="170" fill="white"/>
<path fill-rule="evenodd" clip-rule="evenodd" d="M107.097 98.2091H152.903V84.363H107.097V98.2091ZM99.2636 123.978H160.735V110.132H99.2636V123.978Z" fill="#FB2E13"/>
<path d="M159.127 63.5934C139.051 51.3852 130.012 37.5688 130.012 37.5688H129.986C129.986 37.5688 120.949 51.3852 100.872 63.5934C91.425 69.3376 79.6037 74.2977 65 78.0804L79.1475 90.6444C79.1475 90.6444 92.2887 84.7519 109.041 71.285C124.09 59.1878 129.13 48.6562 130 46.6392C130.869 48.6562 135.909 59.1878 150.959 71.285C167.711 84.7519 180.852 90.6444 180.852 90.6444L195 78.0804C180.395 74.2977 168.575 69.3376 159.127 63.5934Z" fill="#FB2E13"/>
</svg>
